<?xml version="1.0" encoding="UTF-8" standalone="no"?>
<!-- Created with Inkscape (http://www.inkscape.org/) -->

<svg
   xmlns:dc="http://purl.org/dc/elements/1.1/"
   xmlns:cc="http://creativecommons.org/ns#"
   xmlns:rdf="http://www.w3.org/1999/02/22-rdf-syntax-ns#"
   xmlns:svg="http://www.w3.org/2000/svg"
   xmlns="http://www.w3.org/2000/svg"
   xmlns:sodipodi="http://sodipodi.sourceforge.net/DTD/sodipodi-0.dtd"
   xmlns:inkscape="http://www.inkscape.org/namespaces/inkscape"
   width="37mm"
   height="26mm"
   viewBox="0 0 131.10236 92.125983"
   id="svg6085"
   version="1.1"
   inkscape:version="0.91 r13725"
   sodipodi:docname="Send.svg">
  <defs
     id="defs6087" />
  <sodipodi:namedview
     id="base"
     pagecolor="#ffffff"
     bordercolor="#666666"
     borderopacity="1.0"
     inkscape:pageopacity="0.0"
     inkscape:pageshadow="2"
     inkscape:zoom="1.979899"
     inkscape:cx="203.44618"
     inkscape:cy="-22.31759"
     inkscape:document-units="px"
     inkscape:current-layer="layer1"
     showgrid="false"
     inkscape:window-width="1920"
     inkscape:window-height="1017"
     inkscape:window-x="-8"
     inkscape:window-y="-8"
     inkscape:window-maximized="1"
     showguides="true"
     inkscape:guide-bbox="true" />
  <metadata
     id="metadata6090">
    <rdf:RDF>
      <cc:Work
         rdf:about="">
        <dc:format>image/svg+xml</dc:format>
        <dc:type
           rdf:resource="http://purl.org/dc/dcmitype/StillImage" />
        <dc:title></dc:title>
      </cc:Work>
    </rdf:RDF>
  </metadata>
  <g
     inkscape:label="Laag 1"
     inkscape:groupmode="layer"
     id="layer1"
     transform="translate(0,-960.23623)">
    <path
       style="opacity:1;fill:#6c5353;fill-opacity:0.94509804;fill-rule:nonzero;stroke:none;stroke-width:1.58158517;stroke-miterlimit:4;stroke-dasharray:1.58158517, 3.16317034;stroke-dashoffset:0;stroke-opacity:1"
       d=""
       id="path6839"
       inkscape:connector-curvature="0"
       transform="translate(0,960.23623)" />
    <path
       style="opacity:1;fill:#ffffff;fill-opacity:0.94509804;fill-rule:nonzero;stroke:none;stroke-width:1.58158517;stroke-miterlimit:4;stroke-dasharray:1.58158517, 3.16317034;stroke-dashoffset:0;stroke-opacity:1"
       d="m -238.4392,979.65931 0,-40.27753 24.81554,0 24.81553,0 6.23094,4.30829 6.23096,4.30829 0.0133,35.96924 0.0133,35.9692 -31.05979,0 -31.05978,0 0,-40.27749 z m 47.66596,20.87129 c 0.26472,-0.319 0.41872,-1.4222 0.34965,-2.5049 l -0.12342,-1.9348 -20.21299,-0.1039 c -15.90474,-0.082 -20.28128,0 -20.5334,0.4008 -0.49327,0.777 -0.39114,3.6925 0.14824,4.2319 0.36102,0.361 5.39506,0.4809 20.18989,0.4809 16.55165,0 19.78474,-0.091 20.18203,-0.57 z m -12.22631,-7.6745 c 0.66103,-0.661 0.84644,-3.2176 0.2962,-4.0845 -0.25103,-0.3954 -3.4277,-0.4831 -14.52183,-0.4007 l -14.20051,0.1054 -0.1233,2.1663 c -0.0832,1.4617 0.0471,2.2744 0.40077,2.4987 0.28824,0.1828 6.5979,0.3351 14.02148,0.3385 11.74145,0.01 13.57934,-0.076 14.12719,-0.6237 z m 19.62355,-8.4203 c 0.41395,-1.0787 0.26825,-3.5893 -0.23766,-4.09518 -0.36295,-0.36294 -6.15569,-0.48093 -23.61274,-0.48093 -12.7225,0 -23.41708,0.10947 -23.76575,0.24327 -0.46617,0.17888 -0.63393,0.79754 -0.63393,2.33784 0,1.152 0.12023,2.2148 0.26718,2.3617 0.14695,0.147 10.94848,0.2672 24.00341,0.2672 21.27462,0 23.76145,-0.066 23.97949,-0.6339 z m 0.1631,-7.46166 c 0.62293,-0.62293 0.62293,-3.62525 0,-4.24818 -0.36314,-0.36314 -6.2489,-0.48092 -24.03218,-0.48092 -22.87426,0 -23.56319,0.0223 -23.96613,0.77519 -0.22818,0.42636 -0.41487,1.24978 -0.41487,1.82982 0,0.58004 0.18669,1.40346 0.41487,1.82982 0.40294,0.75291 1.09187,0.77519 23.96613,0.77519 17.78328,0 23.66904,-0.11778 24.03218,-0.48092 z m 0.089,-8.33605 c 0.59931,-0.94885 0.45489,-3.48677 -0.23781,-4.17947 -0.54708,-0.54708 -2.36625,-0.62978 -13.85296,-0.62978 -8.34866,0 -13.50894,0.15293 -13.99838,0.41487 -1.06497,0.56995 -1.12036,4.14937 -0.0739,4.77147 0.45747,0.27194 5.40987,0.38338 14.24233,0.32049 11.52828,-0.0821 13.59741,-0.18577 13.92066,-0.69758 z m -0.0859,-9.58058 c 0.0832,-1.46171 -0.0471,-2.27442 -0.40078,-2.49868 -0.88442,-0.56092 -39.75485,-0.42954 -40.32067,0.13627 -0.62474,0.62474 -0.62215,3.62603 0.004,4.25184 0.36884,0.36884 5.27478,0.45978 20.53954,0.38073 l 20.05496,-0.10385 0.1233,-2.16631 z"
       id="path12918"
       inkscape:connector-curvature="0" />
    <g
       id="g13216"
       transform="matrix(1.9859862,0.22961135,-0.3297697,1.3827983,235.59405,-522.69626)">
      <path
         inkscape:connector-curvature="0"
         id="path13135"
         d="m 88.206828,1114.5615 -4.299199,-2.2471 16.331681,-25.5807 c 8.98246,-14.0694 16.42493,-25.5307 16.53898,-25.4693 0.24604,0.1321 -23.69504,55.3926 -24.037213,55.4824 -0.130347,0.03 -2.169708,-0.9494 -4.534249,-2.1853 z"
         style="opacity:1;fill:#6c5353;fill-opacity:0.94509804;fill-rule:nonzero;stroke:none;stroke-width:1.58158517;stroke-miterlimit:4;stroke-dasharray:1.58158517, 3.16317034;stroke-dashoffset:0;stroke-opacity:1" />
      <path
         inkscape:connector-curvature="0"
         id="path13135-8"
         d="m 73.212981,1105.275 -3.463166,-3.3837 23.0461,-19.6715 c 12.675435,-10.8191 23.120955,-19.5965 23.212325,-19.5051 0.19723,0.197 -38.735702,45.9663 -39.089241,45.953 -0.133547,-0.01 -1.80134,-1.5317 -3.706019,-3.3927 z"
         style="opacity:1;fill:#6c5353;fill-opacity:0.94509804;fill-rule:nonzero;stroke:none;stroke-width:1.58158517;stroke-miterlimit:4;stroke-dasharray:1.58158517, 3.16317034;stroke-dashoffset:0;stroke-opacity:1" />
      <path
         inkscape:connector-curvature="0"
         id="path13173"
         d="m 84.769652,1118.7237 c -0.03643,-0.1778 -0.07229,-0.5272 -0.07984,-0.7767 -0.04395,-1.4605 -0.29118,-3.1258 -0.796419,-5.365 l -0.0933,-0.4135 2.025761,1.0366 c 1.114173,0.5702 2.466192,1.2563 3.004547,1.5247 l 0.978675,0.4879 -0.148368,0.1413 c -0.08481,0.075 -0.261969,0.2752 -0.402404,0.4372 -0.323992,0.3693 -1.73427,1.4207 -2.900306,2.1627 -0.491175,0.3126 -1.02801,0.6837 -1.192944,0.8248 -0.164756,0.1411 -0.305736,0.2587 -0.313399,0.261 -0.0048,0 -0.04366,-0.1414 -0.07997,-0.319 z"
         style="opacity:1;fill:#6c5353;fill-opacity:0.94509804;fill-rule:nonzero;stroke:none;stroke-width:1.58158517;stroke-miterlimit:4;stroke-dasharray:1.58158517, 3.16317034;stroke-dashoffset:0;stroke-opacity:1" />
      <path
         inkscape:connector-curvature="0"
         id="path13135-8-8"
         d="m 76.758343,1109.5793 -3.102213,-3.6071 20.644087,-20.9709 c 11.354323,-11.5338 20.711143,-20.8911 20.792993,-20.7936 0.17667,0.2099 -34.698423,49.0027 -35.015114,48.9885 -0.119628,-0.011 -1.613593,-1.6329 -3.319754,-3.6169 z"
         style="opacity:1;fill:#6c5353;fill-opacity:0.94509804;fill-rule:nonzero;stroke:none;stroke-width:1.58158517;stroke-miterlimit:4;stroke-dasharray:1.58158517, 3.16317034;stroke-dashoffset:0;stroke-opacity:1" />
    </g>
  </g>
</svg>
